<svg xmlns="http://www.w3.org/2000/svg" xmlns:xlink="http://www.w3.org/1999/xlink" width="151px" height="32px" viewBox="0 0 151 32" version="1.1">
    <title>Global / Logos / ServeCo / Primary / Full Color Reverse</title>
    <g id="2.2.10.1---About-Carelon-Digital-Platforms" stroke="none" stroke-width="1" fill="none" fill-rule="evenodd">
        <g id="2.2.10.1---About-Carelon-Digital-Platforms-optd" transform="translate(-117.000000, -5074.000000)" fill="#FFFFFF" fill-rule="nonzero">
            <g id="footer-lockup" transform="translate(0.000000, 4883.000000)">
                <g id="footer" transform="translate(0.000000, 144.000000)">
                    <g id="Text-and-icons" transform="translate(117.111111, 25.000000)">
                        <g id="Carelon_h_sm_w" transform="translate(0.000000, 22.000000)">
                            <path d="M147.412546,22.793602 C147.322385,22.6678864 147.132655,22.5600273 146.91794,22.5600273 C146.678242,22.5600273 146.529057,22.6643141 146.529057,22.8243176 C146.529057,23.2571811 147.642838,23.0607496 147.642838,23.7600454 C147.642838,24.1071937 147.356777,24.3407685 146.911786,24.3407685 C146.538112,24.3407685 146.295513,24.1964794 146.158636,24.0057622 L146.361043,23.8186174 C146.49465,23.990763 146.687649,24.0793353 146.914672,24.0793353 C147.188409,24.0793353 147.344116,23.9629046 147.344116,23.778617 C147.344116,23.3000387 146.230336,23.5114694 146.230336,22.8336024 C146.230336,22.5171696 146.513481,22.2993093 146.927348,22.2993093 C147.238378,22.2993093 147.4904,22.4343116 147.611684,22.6036 L147.412546,22.793602 Z M148.979282,23.9171898 L149.720109,22.7778876 L149.720109,24.3036233 L150,24.3036233 L150,22.3364526 L149.713602,22.3364526 L148.998112,23.4628975 L148.279384,22.3364526 L147.955678,22.3364526 L147.955678,24.3036233 L148.23557,24.3036233 L148.23557,22.7778876 L148.979282,23.9171898 Z" id="Legal_Mark" fill="#5009b5"/>
                            <path d="M46.9011027,11.1671212 C44.0825176,11.1671212 42.1798564,13.2869265 42.1798564,15.9627612 C42.1798564,18.6385959 44.1177725,20.7931745 46.8658515,20.7931745 C48.5922568,20.7931745 49.9661352,20.2023737 51.0230677,19.1598558 L53.2077496,22.2877197 C51.8688001,23.7471805 49.4376708,24.7896983 46.7600942,24.7896983 C41.7571456,24.7896983 37.8816318,20.827945 37.8816318,15.9975335 C37.8816318,11.1323498 41.7571456,7.17059641 46.6895919,7.17059641 C49.5786793,7.17059641 51.8688001,8.14357006 53.3484396,9.67257454 L50.8823738,12.6961243 C49.8254451,11.6883792 48.5570018,11.1671212 46.9011027,11.1671212 Z M66.7910143,22.4963501 C65.5577684,23.9214226 63.8312787,24.7901241 61.6468116,24.7901241 C57.1721125,24.7901241 53.5428696,21.1759107 53.5428696,15.9975336 C53.5428696,10.9582496 56.9605864,7.1701707 61.6468116,7.1701707 C63.8665337,7.1701707 65.5930196,7.96932657 66.7910143,9.32485146 L66.7910143,7.6566814 L71.1247049,7.6566814 L71.1247049,24.3036143 L66.7910143,24.3036143 L66.7910143,22.4963501 Z M66.7910143,15.9627612 C66.7910143,13.286796 64.9235161,11.1668885 62.3515702,11.1668885 C59.7440546,11.1668885 57.841616,13.286796 57.841616,15.9627612 C57.841616,18.6387265 59.7440546,20.7934073 62.3515702,20.7934073 C64.9235161,20.7934073 66.7910143,18.6387265 66.7910143,15.9627612 Z M78.5223001,24.3036139 L74.223546,24.3036139 L74.223546,7.65668142 L78.5223001,7.65668142 L78.5223001,9.4639447 C79.4735136,8.07364554 80.8830383,7.17017073 82.6447753,7.17017073 C83.7722677,7.17017073 84.6882301,7.4828154 85.3577336,8.00409893 L83.5607453,12.03559 C82.9969953,11.5838522 82.1512207,11.3056676 81.3410194,11.3056676 C79.6145336,11.3056676 78.5223,12.7307392 78.5223,14.9897398 L78.5223,24.3036139 L78.5223001,24.3036139 Z M84.7577886,15.9975336 C84.7577886,11.1321152 88.421968,7.17017073 93.2841422,7.17017073 C98.1113798,7.17017073 101.775559,10.8539298 101.775559,15.6501156 C101.775559,16.1713992 101.740308,16.7622303 101.670113,17.0401007 L89.1619815,17.0401007 C89.5847039,19.3686489 91.3816998,21.0368194 93.9888969,21.0368194 C95.6801316,21.0368194 97.1249074,20.306897 98.1113798,19.2991023 L100.331106,22.1837055 C99.062601,23.6432381 96.6666039,24.7901241 93.8126334,24.7901241 C88.5629803,24.7901241 84.7577886,20.8281796 84.7577886,15.9975336 Z M89.2324839,14.3641364 L97.3713663,14.3641364 C96.8781263,12.0008167 95.3631627,10.7843841 93.3546445,10.7843841 C91.2054286,10.7843841 89.7257239,12.2442289 89.2324839,14.3641364 Z M103.536345,0.393169004 L107.835091,0.393169004 L107.835091,24.3036132 L103.536345,24.3036132 L103.536345,13.008502 L103.536345,0.393169004 Z M109.807721,15.9975336 C109.807721,11.1321152 113.683423,7.17017073 118.580856,7.17017073 C123.478281,7.17017073 127.389242,11.1321152 127.389242,15.9975336 C127.389242,20.8281796 123.478281,24.7901241 118.580856,24.7901241 C113.683423,24.7901241 109.807721,20.8281796 109.807721,15.9975336 Z M123.055551,15.9627612 C123.055551,13.286796 121.188053,11.1668885 118.616107,11.1668885 C116.008596,11.1668885 114.106153,13.286796 114.106153,15.9627612 C114.106153,18.6387265 116.008596,20.7934073 118.616107,20.7934073 C121.188053,20.7934073 123.055551,18.6387265 123.055551,15.9627612 Z M133.659667,24.3036139 L129.361235,24.3036139 L129.361235,7.65668142 L133.659667,7.65668142 L133.659667,9.29007913 C134.716649,7.93455327 136.337374,7.1701707 138.416072,7.1701707 C142.327033,7.1701707 144.828791,9.88090831 144.828791,14.2250441 L144.828791,24.3036139 L140.530359,24.3036139 L140.530359,14.8506476 C140.530359,12.5916469 139.191352,11.1668885 137.112639,11.1668885 C134.963423,11.1668885 133.659667,12.5916469 133.659667,14.8506476 L133.659667,24.3036139 Z" id="Wordmark" fill="#5009b5"/>
                            <g id="Symbol">
                                <path d="M7.81812005,0 C3.50028461,0 0,3.45256861 0,7.71152447 C0,11.9704803 3.50028461,15.420364 7.81812005,15.420364 C8.22783902,15.420364 8.72292928,15.3851318 9.11372876,15.3185909 L9.39169518,15.9783924 L7.82528691,19.7296271 C8.3432484,19.730384 8.86989704,19.8184265 9.38474318,20.0032572 C9.75001646,20.1343957 10.0880658,20.3066624 10.3955581,20.5127175 L12.2884742,15.9783924 L10.4064696,11.4393578 C9.22903167,12.2333017 7.69402401,12.4749295 6.25151226,11.9570528 C3.8743527,11.1036485 2.6486943,8.51102379 3.51389754,6.16627954 C4.37911563,3.82155093 7.00758311,2.61259092 9.38472759,3.46601106 C11.2470405,4.13458396 12.4025635,5.87059437 12.3997551,7.71860854 L15.5274602,8.98922433 C15.5977803,8.57343668 15.6362399,8.14700654 15.6362399,7.71152425 C15.6362399,3.45256861 12.1359548,0 7.81812005,0 Z" id="Purple" fill="#5009b5"/>
                                <path d="M24.5856192,5.72903413e-06 C20.2677835,5.72903413e-06 16.7674828,3.45257434 16.7674828,7.7115302 C16.7674828,8.1156621 16.8056709,8.60363216 16.8735144,8.9894649 L16.2021463,9.26335988 L12.3997553,7.71869016 C12.3989726,8.22955827 12.3097292,8.74899504 12.1223423,9.25679029 C11.9894675,9.61688672 11.8149267,9.95014372 11.6061764,10.2533067 L16.2021463,12.1206373 L20.806248,10.2645689 C20.001328,9.103187 19.7563596,7.58912639 20.2813959,6.16628574 C21.1465994,3.82154153 23.7750515,2.61258175 26.1522106,3.46600164 C28.5293697,4.31940664 29.755044,6.91203092 28.8898251,9.25675978 C28.2120095,11.0936776 26.451999,12.2334585 24.578437,12.2306884 L23.2895002,15.3157279 C23.711037,15.3851042 24.1441164,15.4230393 24.5856192,15.4230393 C28.9034548,15.4230393 32.4037555,11.9704709 32.4037555,7.71152998 C32.4037555,3.45257429 28.9034548,5.72903413e-06 24.5856192,5.72903413e-06 Z" id="Cyan" fill="#5009b5"/>
                                <path d="M16.2021463,19.8394977 L11.5975056,21.6957307 C12.4024256,22.8570994 12.6473786,24.3711888 12.1223577,25.7940304 C11.2571398,28.1387586 8.62868768,29.3477191 6.25152762,28.4942987 C3.87436806,27.6408954 2.6486943,25.0482706 3.5139129,22.7035254 C4.19174411,20.8666228 5.95175464,19.7268418 7.82531738,19.7296271 L9.11348396,16.6445734 C8.69194809,16.5752122 8.25963794,16.5363604 7.81811982,16.5363604 C3.50029998,16.5363604 0,19.9898304 0,24.2487713 C0,28.5077255 3.50029998,31.9602967 7.81812005,31.9602967 C12.1359548,31.9602967 15.6362315,28.5077255 15.6362315,24.2487713 C15.6362315,23.8446536 15.6013908,23.3793773 15.5289807,22.970847 L16.2021463,22.6969407 L20.0039983,24.2417627 C20.0047656,23.7308492 20.09401,23.2113812 20.2814113,22.7035254 C20.414286,22.343429 20.5888269,22.0101578 20.7975772,21.7069947 L16.2021463,19.8394977 Z" id="Light_Purple" fill="#5009b5"/>
                                <path d="M24.5856192,16.5363679 C24.1759146,16.5363679 23.6855444,16.5742094 23.2895021,16.641879 L23.0123347,15.9790736 L24.5783449,12.2306829 C24.0604141,12.2299109 23.5338259,12.1418693 23.0190105,11.9570528 C22.6537362,11.8259143 22.3156888,11.6536476 22.0081964,11.4475773 L20.1154032,15.9790736 L21.9972831,20.5209371 C23.1747076,19.7269932 24.7097291,19.4853653 26.1522414,20.003242 C28.5293851,20.8566473 29.7550593,23.449272 28.8898405,25.7940153 C28.024639,28.1387435 25.3961715,29.3477039 23.0190258,28.4942836 C21.1567129,27.8257109 20.0011899,26.0896854 20.0039983,24.2416871 L16.8762941,22.971059 C16.8059741,23.3868476 16.7674809,23.8132891 16.7674809,24.2487714 C16.7674809,28.5077256 20.2677989,31.9602968 24.5856192,31.9602968 C28.9034702,31.9602968 32.4037556,28.5077256 32.4037556,24.2487714 C32.4037556,19.9898172 28.9034702,16.5363679 24.5856192,16.5363679 Z" id="Turquoise" fill="#5009b5"/>
                            </g>
                        </g>
                    </g>
                </g>
            </g>
        </g>
    </g>
</svg>